<svg width="401" height="400" viewBox="0 0 401 400" fill="none" xmlns="http://www.w3.org/2000/svg">
<path d="M378.495 207.634C378.495 214.769 379.282 220.053 369.584 230.623C356.479 245.156 294.621 316.236 274.963 337.903C255.305 359.57 232.501 356.663 202.097 345.565C171.692 334.467 64.1625 295.155 44.6592 287.911C29.0571 282.116 26.0683 268.02 26.5244 261.696V237.895L45.4737 234.777C46.1433 240.837 51.1552 247.208 61.1963 251.511C77.3338 258.427 183.759 296.463 208.348 305.684C232.936 314.905 251.378 309.142 264.057 293.774C276.735 278.406 334.751 212.322 348.967 194.648C352.128 190.717 354.128 187.128 355.094 183.843L378.495 179.995V207.634Z" fill="url(#paint0_linear_0_4)"/>
<path d="M125.221 121.419C145.477 99.995 166.511 92.2043 198.842 102.721C231.172 113.239 314.53 142.453 344.913 153.36C375.296 164.267 391.506 176.545 365.558 207.114C337.123 240.613 298.949 285.409 281.421 304.496C257.27 332.541 233.509 328.256 194.168 314.233C154.826 300.21 84.7106 275.671 56.6648 264.764C34.462 256.13 15.0319 242.678 34.4627 221.137C57.964 195.039 109.017 138.558 125.221 121.419ZM197.205 113.813C176.842 106.898 159.553 104.592 142.648 122.649C129.124 137.095 74.5149 197.314 48.9011 225.617C41.9093 233.341 45.0596 245.596 61.1961 252.511C77.3327 259.427 183.758 297.463 208.347 306.684C232.937 315.905 251.379 310.142 264.057 294.774C276.736 279.406 334.751 213.323 348.967 195.649C363.182 177.976 353.961 167.218 332.446 159.918C310.93 152.618 217.568 120.729 197.205 113.813Z" fill="url(#paint1_linear_0_4)"/>
<path d="M125.221 120.419C145.477 98.995 166.511 91.2043 198.842 101.721C231.172 112.239 314.53 141.453 344.913 152.36C375.296 163.267 391.506 175.545 365.558 206.114C337.123 239.613 298.949 284.409 281.421 303.496C257.27 331.541 233.509 327.256 194.168 313.233C154.826 299.21 84.7106 274.671 56.6648 263.764C34.462 255.13 15.0319 241.678 34.4627 220.137C57.964 194.039 109.017 137.558 125.221 120.419ZM197.205 112.813C176.842 105.898 159.553 103.592 142.648 121.649C129.124 136.095 74.5149 196.314 48.9011 224.617C41.9093 232.341 45.0596 244.596 61.1961 251.511C77.3327 258.427 183.758 296.463 208.347 305.684C232.937 314.905 251.379 309.142 264.057 293.774C276.736 278.406 334.751 212.323 348.967 194.649C363.182 176.976 353.961 166.218 332.446 158.918C310.93 151.618 217.568 119.729 197.205 112.813Z" fill="#404141"/>
<path d="M125.221 120.419C145.477 98.995 166.511 91.2043 198.842 101.721C231.172 112.239 314.53 141.453 344.913 152.36C375.296 163.267 391.506 175.545 365.558 206.114C337.123 239.613 298.949 284.409 281.421 303.496C257.27 331.541 233.509 327.256 194.168 313.233C154.826 299.21 84.7106 274.671 56.6648 263.764C34.462 255.13 15.0319 241.678 34.4627 220.137C57.964 194.039 109.017 137.558 125.221 120.419ZM197.205 112.813C176.842 105.898 159.553 103.592 142.648 121.649C129.124 136.095 74.5149 196.314 48.9011 224.617C41.9093 232.341 45.0596 244.596 61.1961 251.511C77.3327 258.427 183.758 296.463 208.347 305.684C232.937 314.905 251.379 309.142 264.057 293.774C276.736 278.406 334.751 212.323 348.967 194.649C363.182 176.976 353.961 166.218 332.446 158.918C310.93 151.618 217.568 119.729 197.205 112.813Z" fill="url(#paint2_radial_0_4)"/>
<path d="M142.648 121.649C129.124 136.096 74.5154 196.313 48.9016 224.617C41.9095 232.34 45.0595 244.595 61.1962 251.511C77.3329 258.427 183.758 296.463 208.347 305.684C232.936 314.905 251.378 309.142 264.057 293.774C276.736 278.406 334.751 212.322 348.967 194.649C363.182 176.975 353.961 166.217 332.446 158.917C310.93 151.617 217.568 119.728 197.205 112.813C176.842 105.897 159.553 103.592 142.648 121.649Z" fill="black"/>
<defs>
<linearGradient id="paint0_linear_0_4" x1="26.4815" y1="267.041" x2="378.51" y2="267.041" gradientUnits="userSpaceOnUse">
<stop stop-color="#383738"/>
<stop offset="0.054426" stop-color="#100F0F"/>
<stop offset="0.533654" stop-color="#100F0F"/>
<stop offset="0.651199" stop-color="#1A1B1B"/>
<stop offset="0.687031" stop-color="#101010"/>
<stop offset="0.983465" stop-color="#1B1B1B"/>
<stop offset="1" stop-color="#48494A"/>
</linearGradient>
<linearGradient id="paint1_linear_0_4" x1="378.511" y1="234.926" x2="26.4822" y2="234.926" gradientUnits="userSpaceOnUse">
<stop stop-color="#1C1D1D"/>
<stop offset="0.307296" stop-color="#3E3D3E"/>
<stop offset="0.37856" stop-color="#A8A4A6"/>
<stop offset="0.501382" stop-color="#717171"/>
<stop offset="0.911206" stop-color="#5B5B5A"/>
<stop offset="0.960289" stop-color="#9E9E9F"/>
<stop offset="1" stop-color="#4C4D4D"/>
</linearGradient>
<radialGradient id="paint2_radial_0_4" cx="0" cy="0" r="1" gradientUnits="userSpaceOnUse" gradientTransform="translate(209.234 324.207) rotate(-101.139) scale(231.496 267.716)">
<stop stop-opacity="0.8"/>
<stop offset="1" stop-opacity="0"/>
</radialGradient>
</defs>
</svg>
