<svg width="401" height="400" viewBox="0 0 401 400" fill="none" xmlns="http://www.w3.org/2000/svg">
<path d="M378.491 207.632C378.491 214.766 379.277 220.05 369.579 230.62C356.474 245.153 294.616 316.233 274.958 337.9C255.3 359.567 232.496 356.661 202.092 345.563C171.687 334.465 64.1594 295.152 44.6552 287.908C29.0531 282.113 26.0643 268.017 26.5204 261.693V237.892L45.4716 234.791C46.1486 240.846 51.1596 247.209 61.1913 251.508C77.328 258.424 183.753 296.46 208.343 305.681C232.932 314.902 251.374 309.139 264.053 293.771C276.731 278.403 334.746 212.319 348.962 194.645C352.027 190.834 354 187.345 354.998 184.142L378.491 180.299V207.632Z" fill="url(#paint0_linear_0_4)"/>
<path d="M378.242 178.109C379.571 185.569 375.94 194.875 365.554 207.111C337.118 240.61 298.945 285.406 281.416 304.493C257.266 332.538 233.505 328.253 194.163 314.23C154.821 300.207 84.7059 275.668 56.6602 264.761C41.1202 258.718 26.939 250.314 26.4893 238.429L45.4171 235.183C45.8172 241.417 50.8235 248.065 61.1915 252.508C77.3281 259.424 183.753 297.46 208.343 306.681C232.932 315.902 251.374 310.139 264.053 294.771C276.732 279.403 334.746 213.32 348.962 195.646C353.069 190.541 355.215 186.012 355.679 181.977L378.242 178.109Z" fill="url(#paint1_linear_0_4)"/>
<path d="M378.157 176.67C379.711 184.203 376.146 193.633 365.554 206.111C337.119 239.61 298.945 284.405 281.416 303.492C257.266 331.538 233.505 327.253 194.163 313.23C154.821 299.207 84.7059 274.667 56.6602 263.76C40.9231 257.64 26.58 249.1 26.4796 236.975L45.3965 233.731C45.5781 240.094 50.5724 246.957 61.1915 251.508C77.3283 258.424 183.753 296.46 208.343 305.681C232.932 314.902 251.374 309.139 264.053 293.771C276.732 278.403 334.746 212.319 348.962 194.645C353.226 189.344 355.379 184.665 355.727 180.515L378.157 176.67Z" fill="#404141"/>
<path d="M378.157 176.67C379.711 184.203 376.146 193.633 365.554 206.111C337.119 239.61 298.945 284.405 281.416 303.492C257.266 331.538 233.505 327.253 194.163 313.23C154.821 299.207 84.7059 274.667 56.6602 263.76C40.9231 257.64 26.58 249.1 26.4796 236.975L45.3965 233.731C45.5781 240.094 50.5724 246.957 61.1915 251.508C77.3283 258.424 183.753 296.46 208.343 305.681C232.932 314.902 251.374 309.139 264.053 293.771C276.732 278.403 334.746 212.319 348.962 194.645C353.226 189.344 355.379 184.665 355.727 180.515L378.157 176.67Z" fill="url(#paint2_radial_0_4)"/>
<defs>
<linearGradient id="paint0_linear_0_4" x1="26.4775" y1="267.191" x2="378.506" y2="267.191" gradientUnits="userSpaceOnUse">
<stop stop-color="#383738"/>
<stop offset="0.054426" stop-color="#100F0F"/>
<stop offset="0.533654" stop-color="#100F0F"/>
<stop offset="0.651199" stop-color="#1A1B1B"/>
<stop offset="0.687031" stop-color="#101010"/>
<stop offset="0.983465" stop-color="#1B1B1B"/>
<stop offset="1" stop-color="#48494A"/>
</linearGradient>
<linearGradient id="paint1_linear_0_4" x1="378.506" y1="238.275" x2="26.3029" y2="238.275" gradientUnits="userSpaceOnUse">
<stop stop-color="#1C1D1D"/>
<stop offset="0.307296" stop-color="#3E3D3E"/>
<stop offset="0.37856" stop-color="#A8A4A6"/>
<stop offset="0.501382" stop-color="#717171"/>
<stop offset="0.911206" stop-color="#5B5B5A"/>
<stop offset="0.960289" stop-color="#9E9E9F"/>
<stop offset="1" stop-color="#4C4D4D"/>
</linearGradient>
<radialGradient id="paint2_radial_0_4" cx="0" cy="0" r="1" gradientUnits="userSpaceOnUse" gradientTransform="translate(209.05 324.204) rotate(-101.469) scale(225.155 267.69)">
<stop stop-opacity="0.8"/>
<stop offset="1" stop-opacity="0"/>
</radialGradient>
</defs>
</svg>
